<svg xmlns="http://www.w3.org/2000/svg" version="1.1" xmlns:xlink="http://www.w3.org/1999/xlink" xmlns:svgjs="http://svgjs.dev/svgjs" width="128" height="128" viewBox="0 0 128 128"><g transform="matrix(0.8046875,0,0,0.8046875,12.333870967741937,11.781918644578731)"><svg viewBox="0 0 155 157" data-background-color="#ffffff" preserveAspectRatio="xMidYMid meet" height="129" width="128" xmlns="http://www.w3.org/2000/svg" xmlns:xlink="http://www.w3.org/1999/xlink"><g id="tight-bounds" transform="matrix(1,0,0,1,0.25,0.4775391674979943)"><svg viewBox="0 0 154.5 154.5" height="154.5" width="154.5"><g><svg></svg></g><g><svg viewBox="0 0 154.5 154.5" height="154.5" width="154.5"><mask id="2eba4d18-adeb-454d-af61-bf17da7fe7a9"><rect width="250" height="250" fill="white"></rect><g transform="matrix(1,0,0,1,51.796301439920555,43.83165)"><svg viewBox="0 0 50.90739712015888 66.8367" height="66.8367" width="50.90739712015888"><g><svg viewBox="0 0 50.90739712015888 66.8367" height="66.8367" width="50.90739712015888"><g><svg viewBox="0 0 50.90739712015888 66.8367" height="66.8367" width="50.90739712015888"><g id="SvgjsG2003"><svg viewBox="0 0 50.90739712015888 66.8367" height="66.8367" width="50.90739712015888" id="SvgjsSvg2002"><g><svg viewBox="0 0 50.90739712015888 66.8367" height="66.8367" width="50.90739712015888"><g transform="matrix(1,0,0,1,0,0)"><svg width="50.90739712015888" viewBox="-2.45 -40.3 39.349999999999994 51.35" height="66.8367" data-palette-color="#00296b"><path d="M27.05 7.05L27.05 7.05Q22.4 7.05 19.98 5.03 17.55 3 16.85 0.15L16.85 0.15Q16.25 0.2 15.65 0.28 15.05 0.35 14.4 0.35L14.4 0.35Q10 0.35 7.15-1.75 4.3-3.85 2.93-7.3 1.55-10.75 1.55-14.75L1.55-14.75Q1.55-18.55 2.75-22.35 3.95-26.15 6.23-29.3 8.5-32.45 11.8-34.38 15.1-36.3 19.35-36.3L19.35-36.3Q22.65-36.3 25.08-35.08 27.5-33.85 29.08-31.73 30.65-29.6 31.43-26.9 32.2-24.2 32.2-21.2L32.2-21.2Q32.2-17.25 30.93-13.28 29.65-9.3 27.15-6.08 24.65-2.85 21.05-1.15L21.05-1.15Q22.7-0.8 24.65-0.63 26.6-0.45 29.05-0.45L29.05-0.45Q29.9-0.45 30.83-0.45 31.75-0.45 32.7-0.5L32.7-0.5 32.9-0.1Q32.1 2.35 30.7 4.15 29.3 5.95 27.05 7.05ZM16.4-6L16.4-6Q18.1-6 19.38-7.2 20.65-8.4 21.53-10.38 22.4-12.35 22.85-14.75 23.3-17.15 23.3-19.6L23.3-19.6Q23.3-22.35 22.75-24.7 22.2-27.05 21.08-28.53 19.95-30 18.2-30L18.2-30Q16.3-30 14.88-28.83 13.45-27.65 12.48-25.7 11.5-23.75 11-21.35 10.5-18.95 10.5-16.55L10.5-16.55Q10.5-13.8 11.15-11.4 11.8-9 13.13-7.5 14.45-6 16.4-6Z" opacity="1" transform="matrix(1,0,0,1,0,0)" fill="black" class="wordmark-text-0" id="SvgjsPath2001" stroke-width="7" stroke="black" stroke-linejoin="round"></path></svg></g></svg></g></svg></g></svg></g><g></g></svg></g></svg></g></mask><g transform="matrix(1,0,0,1,51.796301439920555,43.83165)"><svg viewBox="0 0 50.90739712015888 66.8367" height="66.8367" width="50.90739712015888"><g><svg viewBox="0 0 50.90739712015888 66.8367" height="66.8367" width="50.90739712015888"><g><svg viewBox="0 0 50.90739712015888 66.8367" height="66.8367" width="50.90739712015888"><g id="textblocktransform"><svg viewBox="0 0 50.90739712015888 66.8367" height="66.8367" width="50.90739712015888" id="textblock"><g><svg viewBox="0 0 50.90739712015888 66.8367" height="66.8367" width="50.90739712015888"><g transform="matrix(1,0,0,1,0,0)"><svg width="50.90739712015888" viewBox="-2.45 -40.3 39.349999999999994 51.35" height="66.8367" data-palette-color="#00296b"><path d="M27.05 7.05L27.05 7.05Q22.4 7.05 19.98 5.03 17.55 3 16.85 0.15L16.85 0.15Q16.25 0.2 15.65 0.28 15.05 0.35 14.4 0.35L14.4 0.35Q10 0.35 7.15-1.75 4.3-3.85 2.93-7.3 1.55-10.75 1.55-14.75L1.55-14.75Q1.55-18.55 2.75-22.35 3.95-26.15 6.23-29.3 8.5-32.45 11.8-34.38 15.1-36.3 19.35-36.3L19.35-36.3Q22.65-36.3 25.08-35.08 27.5-33.85 29.08-31.73 30.65-29.6 31.43-26.9 32.2-24.2 32.2-21.2L32.2-21.2Q32.2-17.25 30.93-13.28 29.65-9.3 27.15-6.08 24.65-2.85 21.05-1.15L21.05-1.15Q22.7-0.8 24.65-0.63 26.6-0.45 29.05-0.45L29.05-0.45Q29.9-0.45 30.83-0.45 31.75-0.45 32.7-0.5L32.7-0.5 32.9-0.1Q32.1 2.35 30.7 4.15 29.3 5.95 27.05 7.05ZM16.4-6L16.4-6Q18.1-6 19.38-7.2 20.65-8.4 21.53-10.38 22.4-12.35 22.85-14.75 23.3-17.15 23.3-19.6L23.3-19.6Q23.3-22.35 22.75-24.7 22.2-27.05 21.08-28.53 19.95-30 18.2-30L18.2-30Q16.3-30 14.88-28.83 13.45-27.65 12.48-25.7 11.5-23.75 11-21.35 10.5-18.95 10.5-16.55L10.5-16.55Q10.5-13.8 11.15-11.4 11.8-9 13.13-7.5 14.45-6 16.4-6Z" opacity="1" transform="matrix(1,0,0,1,0,0)" fill="#00296b" class="wordmark-text-0" data-fill-palette-color="primary" id="text-0"></path></svg></g></svg></g></svg></g></svg></g><g></g></svg></g></svg></g><g mask="url(#2eba4d18-adeb-454d-af61-bf17da7fe7a9)"><g transform="matrix(4.5849365431184665, 0, 0, 4.5849365431184665, 34.07217795574654, 1)"><svg xmlns="http://www.w3.org/2000/svg" xmlns:xlink="http://www.w3.org/1999/xlink" version="1.1" x="0" y="0" viewBox="14.582839051260535 7.369 18.834643244543514 33.261092834291745" enable-background="new 0 0 48 48" xml:space="preserve" height="33.261092834291745" width="18.834643244543514" class="icon-none" data-fill-palette-color="accent" id="none"><path d="M23.788 14.359C25.715 14.359 27.283 12.793 27.283 10.865S25.715 7.369 23.788 7.369 20.292 8.937 20.292 10.865 21.86 14.359 23.788 14.359M23.788 8.369C25.164 8.369 26.283 9.49 26.283 10.865S25.164 13.359 23.788 13.359 21.292 12.24 21.292 10.865 22.412 8.369 23.788 8.369" fill="#63b0ee" data-fill-palette-color="accent"></path><path d="M33.082 23.139C33.382 22.684 33.485 22.137 33.374 21.604 33.151 20.522 32.036 19.784 30.96 20.018L26.827 20.872C25.905 19.286 24.586 17.009 24.495 16.825 24.455 16.733 23.417 14.411 20.677 14.835 19.079 15.081 17.554 17.714 16.973 18.835 15.513 21.649 14.486 25.39 15.485 27.396 15.682 27.794 16.208 28.207 16.927 28.728L14.654 37.74A2.32 2.32 0 0 0 17.158 40.616 2.32 2.32 0 0 0 19.135 38.909L20.982 32.725C23.035 36.823 23.781 38.75 23.783 38.75A2.323 2.323 0 0 0 26.642 40.346 2.31 2.31 0 0 0 28.233 37.473L26.057 30.5C25.94 30.084 25.606 29.492 25.225 29.023L23.364 26.732C23.571 26.048 23.824 25.158 24.063 24.185L24.098 24.242A2.01 2.01 0 0 0 26.247 25.164L31.231 24.133 32.419 39.971A0.5 0.5 0 0 0 32.917 40.434H32.955A0.5 0.5 0 0 0 33.416 39.897L32.214 23.876C32.565 23.719 32.866 23.469 33.082 23.139M18.172 38.641A1.32 1.32 0 0 1 16.571 39.588 1.32 1.32 0 0 1 15.624 37.984L17.8 29.353C18.696 30.001 19.654 30.749 20.288 31.552zM26.046 24.184A1 1 0 0 1 24.948 23.715L24.272 22.629A0.5 0.5 0 0 0 23.359 22.789 48 48 0 0 1 22.331 26.695 0.5 0.5 0 0 0 22.421 27.158L24.45 29.654C24.778 30.058 25.028 30.531 25.099 30.785L27.276 37.758C27.372 38.096 27.331 38.451 27.16 38.758A1.3 1.3 0 0 1 26.371 39.383C25.653 39.586 24.94 39.162 24.732 38.436 24.7 38.352 23.92 36.313 21.625 31.772 20.902 30.342 19.243 29.155 17.91 28.202 17.251 27.731 16.504 27.198 16.381 26.95 15.58 25.343 16.52 21.882 17.861 19.296 19.035 17.032 20.197 15.921 20.829 15.823 20.996 15.798 21.155 15.786 21.306 15.786 22.913 15.786 23.554 17.169 23.578 17.224 23.659 17.412 25.22 20.101 26.143 21.687A0.49 0.49 0 0 0 26.676 21.925L31.162 20.997A1.05 1.05 0 0 1 32.393 21.806C32.45 22.079 32.397 22.359 32.244 22.591S31.857 22.984 31.584 23.04z" fill="#63b0ee" data-fill-palette-color="accent"></path></svg></g></g></svg></g><defs></defs></svg><rect width="154.5" height="154.5" fill="none" stroke="none" visibility="hidden"></rect></g></svg></g></svg>